<svg id="Livello_1" data-name="Livello 1" xmlns="http://www.w3.org/2000/svg" viewBox="0 0 2205.32 446.3"><defs><style>.cls-1{fill:#35332b;}.cls-2{fill:none;}.cls-3{fill:#36b0c9;}.cls-4{fill:#f3c300;}</style></defs><path class="cls-1" d="M242.49,177.82Z" transform="translate(-6.04 -32.85)"/><path class="cls-2" d="M482.85,378.45l-2.22-6.31,6-2.11L378.09,317.87a100,100,0,0,0,7.7,14Z" transform="translate(-6.04 -32.85)"/><path class="cls-2" d="M31.79,151.47l-9.09,1.06,4.8,7.55L264.61,273.79c.6-2.94,1.08-6.44,1.44-9.75Z" transform="translate(-6.04 -32.85)"/><path class="cls-3" d="M143.9,279.83s10.27-12.32,21.16-2.75,9.48,21.54,6.79,21.19c-13.74-1.78-16.57-5.69-19.64-10-1.7-2.39,1.24,5.53,1.24,5.53A13.69,13.69,0,0,1,143.9,279.83Z" transform="translate(-6.04 -32.85)"/><path class="cls-2" d="M22.7,152.53l4.8,7.55L262.65,272.85c.47-2.08.89-4.13,1.25-5.86.2-1,.37-2.33.51-3.74L31.79,151.47Z" transform="translate(-6.04 -32.85)"/><path class="cls-4" d="M254.18,296.05c2.06-2.94,4.5-9.15,6.48-14.63a83,83,0,0,0,2.39-9L27.9,159.69l-4.81-7.55,9.1-1.06L264.8,262.86c.27-2.61.45-5.38.58-6.08.2-1.08-.06-5.49,0-6.48.12-4.22-1.25-12.86-1.35-12.27s-2.39,3.49-3.73,4.91c-1.63,1.71-6.09,3.14-7.07,3.24s-5-.3-4.42-.79a8.43,8.43,0,0,0,2.95-4.61c1.27-3.24.84-3.33.68-6.38a64.22,64.22,0,0,0-2.26-9.43c-.93-2.9-3-7.56-3.33-8.83-.64-2.41-3.77-9.6-4.72-15a36.86,36.86,0,0,1-.78-8.74,74.73,74.73,0,0,1,.82-8.31C114.28,130.69,35.33,136.85,11.08,140.79a6,6,0,0,0-4.26,8.88c10.51,18.63,45.65,70.72,134.87,127.77,3-3.46,14.28-14.66,25.8-3.35,8.89,8.73,11,19.17,10.46,25q21.69,12.14,46.84,24.29L226,324c4.08-3.11,10.34-8.76,13.15-11.36A149.11,149.11,0,0,0,254.18,296.05Z" transform="translate(-6.04 -32.85)"/><path class="cls-2" d="M389.2,333.54l93.65,44.91-2.22-6.31,6-2.11L379.58,318.59a17.13,17.13,0,0,0,1.27,2.28C381.86,322.29,386.2,329,389.2,333.54Z" transform="translate(-6.04 -32.85)"/><path class="cls-4" d="M505.32,362.42C500,354.47,484,333,448.43,303.75a41.79,41.79,0,0,1-5.39,4.54,36.78,36.78,0,0,1-13.62,5c-5.64,1-12.17-.39-14.53-1.57a40.5,40.5,0,0,1-7.06-4.19,12.08,12.08,0,0,1-2.27-2.32c-.61.1.32,7.39,1.09,8.41.35.46,1,1.31,1,1.31a60.49,60.49,0,0,1-12.43.65c-2.77-.18-9.14-.81-11.13-1.24-2.64-.59-3.87-.73-5.12-1.17-.34-.12.76,2.93,1.94,5.38L488,370l-6,2.11,2.21,6.31-93.65-44.91c1.15,1.72,2.1,3.11,2.59,3.75,1.82,2.33,6.66,10.87,9.61,14.33,1.82,2.13,10.14,13,14.22,16.56,3.86,3.38,7.2,6.54,9.16,7.72s2.61,1.44,3.39,1.9-8.61,3.22-11.37,3.6c-2.4.32-7.55.9-8.87.26-1-.46,5.8,6.26,9.38,9.75,38.31,7.11,61.38,6.29,70.06,5.53a3.86,3.86,0,0,0,3.46-4.34l-1.76-13.77a3.84,3.84,0,0,1,1.81-3.78l11.85-7.23A3.83,3.83,0,0,0,505.32,362.42Z" transform="translate(-6.04 -32.85)"/><path class="cls-3" d="M462.65,431.9a.49.49,0,0,0-.32-.24c-.89-.22-1.76-.47-2.61-.74s-1.59-.57-2.52-1-1.75-.8-2.52-1.19-1.8-1-2.87-1.61a55.91,55.91,0,0,1-5.06-3.49,69.3,69.3,0,0,1-6.1-5.35c-.57-.55-1.13-1.14-1.65-1.69l-.11-.12-.11-.12-.17-.17-.54-.58c-.7-.73-1.47-1.51-2.42-2.44-3.39-3.34-6.89-6.41-10.28-9.37l-.18-.16-.29-.25-.35-.31-.08-.07c-3.36-2.94-7.17-6.27-10.73-9.67a97.71,97.71,0,0,1-9.82-10.68l-.05,0c-1.08-1.45-2.07-2.87-2.94-4.21-.66-1.06-1.3-2.16-1.88-3.25l.05,0,.09.05c.32.13.68.26,1.1.4a41,41,0,0,0,7.87,1.9c.89.11,1.83.2,2.79.28.74,0,1.34.06,1.85.06h.93a23.8,23.8,0,0,0,5.45-.77.53.53,0,0,0,.38-.37.54.54,0,0,0-.14-.55c-1.8-1.4-3.58-2.88-5.3-4.42s-3.19-2.95-4.89-4.7a117,117,0,0,1-9.06-10.5c-1.14-1.47-2.36-3.13-3.65-4.91l-1.38-1.95-1.59-2.26c-.93-1.29-1.87-2.56-2.81-3.84l-.16-.21-.17-.24-.29-.38-.08-.11c-.8-1.09-1.61-2.18-2.41-3.28-2.5-3.44-4.45-6.3-6.14-9a70.6,70.6,0,0,1-5-9.46,44.45,44.45,0,0,1-1.6-4.44,30.59,30.59,0,0,1-1-4.42,22.76,22.76,0,0,1-.2-2.42,15.74,15.74,0,0,1,0-1.92l0,.07c.18.11.37.21.56.31a11.28,11.28,0,0,0,1.43.66,16.89,16.89,0,0,0,2.94.95l.22.05a16.71,16.71,0,0,0,2,.32c7.3,1.12,14.32,1.72,11.44.46-3.14-1.37-8.61-9.79-12.73-16.3s-8.87-17.23-12.3-27.29a143.22,143.22,0,0,1-5.89-21.5c-2.57-12.39-2.26-25.62-2.85-25.62-1.68,0-9.1.64-13-.13-9.09-1.82-14.55-2.8-20.13-8.51-5-5.11-6.3-9.18-6.55-11.6,0-.27,0-.54,0-.82,0-.09,0-.2,0-.31l.14-1.33a.33.33,0,0,0,0,.08c0-.06,0-.09,0-.08s1.73,10.48,10.84,15c12,5.94,23.37,5,26.9,5s4.91-.85,5.5-.26.89,7.15,1.18,11.25c.19,2.73,1.6,14,2.75,19.25,1.11,5,4.12,23,17.87,46.14,8,13.47,14.08,16.36,16.28,17.25.15.08.23.11.32.17a.75.75,0,0,0,.36.13.41.41,0,0,0,.16,0,.56.56,0,0,0,.24-.13.55.55,0,0,0,.16-.39l-.16-1.24-.1-.71,0-.15-.15-1.11a36.45,36.45,0,0,1-.29-9.18,14,14,0,0,1,.27-1.48v.06c.07.12.15.23.23.35a31.27,31.27,0,0,0,1.9,2.49,28,28,0,0,0,3.29,3.23,26.22,26.22,0,0,0,3.58,2.52,24.57,24.57,0,0,0,3.82,1.84,26.12,26.12,0,0,0,8.2,1.73c.44,0,.9,0,1.35,0a28.33,28.33,0,0,0,7-.92,29.72,29.72,0,0,0,8-3.34,31.53,31.53,0,0,0,3.64-2.55c1-.8,1.85-1.62,2.72-2.46,1.64-1.62,3-3,4.17-4.32.93-1.05,1.73-2,2.44-2.91a27.67,27.67,0,0,0,2.06-3,12.27,12.27,0,0,0,1-2.13,5.33,5.33,0,0,0,.37-1.9,2.84,2.84,0,0,0-.51-1.6,2.44,2.44,0,0,0-.3-.36.74.74,0,0,0-.27-.19,1.37,1.37,0,0,0-.31-.11l-.39,0h-.76c-.45,0-.85.07-1.24.12-.6.06-1.19.14-1.77.22l-.25,0-.94.12c-.89.12-1.86.24-2.88.32-.52.05-1,.07-1.46.07s-.62,0-.82,0a6.37,6.37,0,0,1-.66-.16c-.61-.19-1.13-.37-1.62-.57s-1-.48-1.41-.7a13.65,13.65,0,0,1-1.31-.88c-.33-.27-.62-.53-.88-.79a9.14,9.14,0,0,1-1-1.07q-.31-.42-.63-.93a10.87,10.87,0,0,1-.62-1.23,15.87,15.87,0,0,1-1-3.85,19,19,0,0,1-.05-4.46l.05.05a2.09,2.09,0,0,0,.29.16c.72.36,1.46.76,2.1,1.11l.06,0,.06,0c.73.41,1.46.8,2.21,1.16a14.61,14.61,0,0,0,2.68,1,9.61,9.61,0,0,0,2.58.34h.37a.55.55,0,0,0,.47-.29.53.53,0,0,0-.08-.66,36.33,36.33,0,0,1-3.25-3.67A61.07,61.07,0,0,1,433.78,255a104.6,104.6,0,0,1-3.66-10.31c-.88-3-1.64-6-2.25-8.92l0,0a.34.34,0,0,0,.14.08,10.08,10.08,0,0,0,1.58.52,10.28,10.28,0,0,0,2.51.32l.62,0a9.34,9.34,0,0,0,1.42-.22h.22a14.06,14.06,0,0,0,2.24-.37,35.09,35.09,0,0,0,3.64-1.15l.73-.26a.48.48,0,0,0,.36-.36.45.45,0,0,0,0-.28.55.55,0,0,0-.23-.31,3.15,3.15,0,0,1-.29-.22,17.28,17.28,0,0,1-3.1-3.2c-.28-.37-.58-.77-.88-1.2l-.08-.17c-.39-.86-.87-1.79-1.5-2.95l0-.06,0-.05-.19-.35-.33-1,0-.06,0-.1,0,0c-.56-1.73-1.61-5-2.62-7.84s-2.11-5.7-3.28-8.33a76.33,76.33,0,0,0-3.68-7.27,66,66,0,0,0-9.42-12.75,45,45,0,0,0-5.67-5.06c-.78-.57-1.64-1.14-2.26-1.55l-.09-.06-.09-.05-.06,0-.06,0-.11-.08-.08,0c-.77-.51-1.73-1.14-2.56-1.78a15.7,15.7,0,0,1-1.34-1.15,10.15,10.15,0,0,1-1.17-1.29c-.22-.29-.44-.62-.7-1-.11-.18-.2-.36-.29-.54l0,0a1.42,1.42,0,0,0,.3.2,7.65,7.65,0,0,0,1.54.65,13.42,13.42,0,0,0,2.26.49l1.5.19.15,0,.2,0,.53.07a17.48,17.48,0,0,1,1.79.31,10.15,10.15,0,0,1,1.67.51,7.85,7.85,0,0,1,1.08.57.46.46,0,0,0,.27.09.47.47,0,0,0,.28-.09.53.53,0,0,0,.25-.63c-.47-1.29-.94-2.48-1.44-3.64a40.51,40.51,0,0,0-1.95-4,31.28,31.28,0,0,0-2.23-3.44c-.83-1.13-1.78-2.22-2.68-3.22a61.38,61.38,0,0,0-12.32-10.23,102.46,102.46,0,0,0-14.31-7.47c-2.24-1-3.95-1.72-5.55-2.33-1-.4-2.08-.79-3.12-1.18l-.36-.13-.89-.33c-3.59-1.34-6.57-2.48-9.43-3.68-2.67-1.13-5-2.23-7.16-3.34a44.81,44.81,0,0,1-6.34-4,19.35,19.35,0,0,1-3.39-3.27,10.44,10.44,0,0,1-1.29-2.16c0-.09-.07-.19-.11-.29l.07.05.11,0,.55.14c1.71.4,3.4.9,5.28,1.47a65.83,65.83,0,0,0,7.26,1.92h.15a.56.56,0,0,0,.27-.08.62.62,0,0,0,.28-.48,33,33,0,0,0-.08-3.53,33.79,33.79,0,0,0-.52-3.71,43.31,43.31,0,0,0-2.18-7.48,66.15,66.15,0,0,0-3.27-7.2c-1.13-2.18-2.48-4.51-4.11-7.1-2.89-4.61-6.08-9-8.84-12.72q-2-2.76-4-5.53c-1.65-2.27-3-4.08-4.37-5.88a88.56,88.56,0,0,0-10.52-11.84,45,45,0,0,0-5.84-4.56,29.22,29.22,0,0,0-6.2-3.1l0,0v-.06l0-.08.09-.41a7.52,7.52,0,0,1,.3-.94c.1-.21.21-.42.32-.63s.21-.34.36-.54a6.78,6.78,0,0,1,.61-.7,5.45,5.45,0,0,1,.63-.55,8.56,8.56,0,0,1,1-.68,10.94,10.94,0,0,1,1-.51l.1,0,.61-.23a21.49,21.49,0,0,1,2.85-.74.56.56,0,0,0,.26-.92l-.77-.71c-.2-.16-.41-.3-.62-.45a13.76,13.76,0,0,0-1.51-.9l-.16-.08-.11-.06-.28-.15a7.34,7.34,0,0,0-1.26-.6,9.72,9.72,0,0,0-2.11-.45c-1-.12-1.92-.18-2.91-.23s-2-.06-3.38-.08h-8.78c-2.65,0-6.1,0-9.29-.18-2.31-.1-4.41-.28-6.42-.55a29.05,29.05,0,0,1-7.24-1.74h-.05a11.82,11.82,0,0,1-2.26-1.3A5.76,5.76,0,0,1,264.47,40a5,5,0,0,1-.56-1,4.89,4.89,0,0,1-.29-1.09,5.2,5.2,0,0,1,0-1.36,9,9,0,0,1,.61-2.16c.1-.21.21-.45.33-.69a.54.54,0,0,0-.2-.75.45.45,0,0,0-.26-.08.51.51,0,0,0-.3-.09l-.14,0c-.55.13-1.08.28-1.62.45a19.75,19.75,0,0,0-2.05.77,27,27,0,0,0-3.44,1.73,39.41,39.41,0,0,0-3.72,2.45c-1.16.85-2.33,1.8-3.69,3a63.18,63.18,0,0,0-6.5,6.7,55,55,0,0,0-5,7,34.08,34.08,0,0,0-1.88,3.64,35.21,35.21,0,0,0-1.56,4.19,37.17,37.17,0,0,0-1.11,4.79,38.76,38.76,0,0,0-.48,5,35.38,35.38,0,0,0,.18,4.91,37.4,37.4,0,0,0,.85,5,33.47,33.47,0,0,0,1.51,4.63,31.22,31.22,0,0,0,2.22,4.45.55.55,0,0,0,1-.13c.15-.68.33-1.36.54-2a19.36,19.36,0,0,1,.68-1.86l.48-1c.21-.43.44-.83.71-1.32l.05-.08a22.92,22.92,0,0,1,1.54-2.27c.3-.39.61-.77.93-1.13s.71-.77,1.09-1.15A25.56,25.56,0,0,1,247,78.27c.45-.35,1-.73,1.57-1.14s1.41-.9,2.07-1.29A41,41,0,0,1,255,73.7c1.09-.44,2.15-.84,3.14-1.18s2-.63,3.22-1a57.05,57.05,0,0,1,6.88-1.35,58.45,58.45,0,0,1,7-.53H276c1,0,1.85,0,2.58.06,1.71.08,3.33.22,4.81.42.35,0,.71.1,1.06.16s.7.13,1.14.23a15.77,15.77,0,0,1,2.21.67h-.18c-.76.16-1.44.37-2,.53a20,20,0,0,0-3.38,1.37,14.06,14.06,0,0,0-1.73,1,12.52,12.52,0,0,0-1.16.86l-.13.1a12,12,0,0,0-1.41,1.37,11.66,11.66,0,0,0-.9,1.18l-.05.09a.47.47,0,0,0,0,.52.54.54,0,0,0,.47.32l1,0h.27c.44,0,.89.06,1.23.1l.7.11c.34,0,.68.14,1.05.23l.17,0a17,17,0,0,1,2,.7c.37.16.74.32,1.1.5.52.25,1,.54,1.5.81l.08,0a26.63,26.63,0,0,1,2.64,1.8c.57.45,1.16.94,1.81,1.51s1.09,1,1.77,1.69a41.25,41.25,0,0,1,3.51,4c.45.58.93,1.23,1.41,1.93s1,1.44,1.56,2.41a45.34,45.34,0,0,1,2.43,4.71c.37.89.68,1.72.94,2.53a25.63,25.63,0,0,1,.92,4.11q.07.54.12,1.08c0,.32.05.68.05,1.14l-.34-.11-.08,0h-.06c-1.22-.22-2.53-.46-3.82-.74-.75-.16-1.65-.39-2.75-.7-.77-.23-1.58-.52-2.56-.92-.55-.26-1-.49-1.48-.72s-.87-.52-1.25-.77l-.14-.09-.05,0a.47.47,0,0,0-.28-.09.51.51,0,0,0-.48.29c-.94,1.89-1.85,3.88-2.7,5.76l0,.06-.18.39c-.55,1.21-1.18,2.58-1.81,3.92-.91,1.89-1.85,3.66-2.78,5.26a45.62,45.62,0,0,1-3.08,4.48l-.76,1-.06.08,0,0c-.73.93-1.55,2-2.22,3a12.07,12.07,0,0,0-1,2,12.3,12.3,0,0,0-.73,2.48,16.89,16.89,0,0,0-.25,2.55,28.76,28.76,0,0,0,.22,4.28c0,.44.09.88.14,1.33v.18c.08.76.16,1.52.23,2.29.05.57.07,1.16.08,1.88,0,.47,0,.89,0,1.25a11.65,11.65,0,0,1-.14,1.22l0,.19-.06.32,0,.16c0,.18-.08.36-.13.53-2.64-1-4.73-1.78-6.39-2.47-2.12-.91-4-1.8-5.66-2.72a43,43,0,0,1-5.48-3.59c-.6-.47-1.14-.92-1.62-1.33s-1-.92-1.6-1.51a33.34,33.34,0,0,1-3-3.36q-.72-.94-1.32-1.8c-.47-.69-.88-1.35-1.3-2a41.53,41.53,0,0,1-2.69-5.23c-.21-.52-.4-1-.61-1.61s-.33-1.06-.45-1.47l0-.08a24.64,24.64,0,0,1-.64-3.11c-.15-1.11-.25-2.16-.29-3.22s-.07-2.27-.07-3.54a.52.52,0,0,0-.28-.47,2.61,2.61,0,0,0-.67-.27.48.48,0,0,0-.15,0,.53.53,0,0,0-.16,0,.57.57,0,0,0-.32.23c-.23.31-.46.64-.68,1s-.63,1-.91,1.42a21.12,21.12,0,0,0-1.22,2.42,20.29,20.29,0,0,0-.78,2.1,21.63,21.63,0,0,0-.72,3,27.25,27.25,0,0,0-.36,5.28,41.15,41.15,0,0,0,.51,5.39c.3,2,.74,4,1.18,5.83s.9,3.56,1.29,5l0,.19.15.59,0,0a93.66,93.66,0,0,1,2.45,11.08c.09.75.16,1.35.2,1.89,0,.36,0,.74,0,1.12a12.81,12.81,0,0,1-.12,1.54v.06l-.07.44c0,.3-.13.62-.23,1a18.89,18.89,0,0,1-.68,2c-.2.46-.41.91-.62,1.36-.31.63-.69,1.31-.95,1.75l0,.08,0,.05c-.56,1-1.15,1.9-1.63,2.66l-.1.15,0,.08-.16.24-.44.7c-.82,1.31-1.62,2.69-2.37,4.11-.22.41-.44.84-.66,1.27,2.53.66,14.34,5.32,13.39,5.58-.34.09-1.38,3.29-1.41,3.38-.18.67-.33,1.42-.48,2.33s-.23,1.75-.31,2.94a38.51,38.51,0,0,0,.31,6.86,60.78,60.78,0,0,0,1.36,7.2c1.08,4.51,2.58,8.95,4.15,13.48l.49,1.41c.51,1.45,1,3,1.52,4.44s.91,2.86,1.3,4.23c.25.91.45,1.79.6,2.47s.29,1.5.43,2.45c0,.37.09.75.12,1.13s.06.82.08,1.24a20.38,20.38,0,0,1-.13,3.09v.19l0,.11,0,.08-.1.57,0,.14c-.09.45-.18.85-.28,1.21a.56.56,0,0,0,.25.63.6.6,0,0,0,.28.08l.15,0a.5.5,0,0,0,.32-.25q.36-.48.6-.87c.19-.3.37-.6.53-.9a12.16,12.16,0,0,0,.71-1.54c.28-.69.51-1.33.7-2s.44-1.57.59-2.22l0-.14,0-.11c.16-.72.3-1.39.44-2.06l0-.22.05-.24v-.12l0-.07.06-.31,0-.12V229c.11-.5.21-1,.32-1.5s.31-1.26.52-2c.13-.47.3-1,.5-1.5l0,0,0,.09c.32.44.6.84.88,1.24s.65,1,1,1.65a32.09,32.09,0,0,1,1.55,3.15c.39.94.72,1.81,1,2.64s.6,1.92,1,3.28a56.51,56.51,0,0,1,1.22,6.49,84.44,84.44,0,0,1,.61,12l0,0,0,.33,0,.78c0,.33,0,.67,0,1-.13,3.23-.43,6.54-.89,10.09a111.05,111.05,0,0,1-2.06,11c-.37,1.55-.81,3.17-1.31,4.8-.56,1.84-1.26,3.76-2.06,5.7l-.17.41-.08.18,0,.06c-.5,1.11-1,2.19-1.53,3.21s-1.24,2.33-2.11,3.79a74.46,74.46,0,0,1-4.82,7c-1,1.32-2.16,2.69-3.34,4.06s-2.38,2.68-3.91,4.26c-2.87,3-5.83,5.79-8.35,8.12-2,1.83-4,3.69-6,5.42l-.11.11-.07.05-.13.12-.14.13-.08.08c-3.56,3.22-7.25,6.55-10.75,10-2.93,2.87-5.52,5.64-7.91,8.46-1.14,1.33-2.24,2.72-3.37,4.23-.58.77-1.09,1.5-1.73,2.42s-1.31,1.89-2,2.84c-1.4,2.05-2.7,4.07-3.87,6a68,68,0,0,0-3.41,6.36,47,47,0,0,0-2.4,6.19,33.31,33.31,0,0,0-1.28,6.36.56.56,0,0,0,.17.39.57.57,0,0,0,.39.17.31.31,0,0,0,.15,0c.67-.26,1.34-.55,2-.87.83-.39,1.67-.86,2.3-1.23,1.45-.82,2.88-1.77,4.13-2.6l.12-.08.28-.18.25-.17.13-.09.05,0,.08-.05.16-.11c1-.65,2.46-1.63,3.86-2.5a40.46,40.46,0,0,1,4.65-2.47l.44-.19,1.37-.49c.4-.13.79-.24,1.21-.35l-.06.08,0,.16-.07.29a25.58,25.58,0,0,1-1.24,3.67,66.46,66.46,0,0,1-5.42,9.53L210,382.2c-1.11,1.73-2.19,3.43-3.15,5.22-.55,1-1,2.05-1.48,2.94s-.93,2-1.43,3.14c-1.49,3.39-2.94,7.17-4.43,11.55-.28.83-.57,1.69-.87,2.6-.83,1.89-1.68,3.76-2.52,5.57-1.2,1.85-2.49,3.82-3.8,5.73-.91,1.3-1.76,2.46-2.6,3.55l0,.06a66.19,66.19,0,0,1-4.73,5.45,57.57,57.57,0,0,1-5,4.53h-.06a7.92,7.92,0,0,0-2.08.95l-.05,0a13,13,0,0,1-1.23.66l-.4.14a.48.48,0,0,0-.27.18c-1.77,1.18-11.53,7.6-13.43,7.24-.33-.06-.51.12-.51.47a9.75,9.75,0,0,0,6.37,2.46c18.95-.79,42.71-8.05,13.75,1.67-1.29.43-11.56,2.05-13.26,2.35-16.29,2.95-19.24,1.07-19.24,1.07l-.5.07a15.92,15.92,0,0,1-2.2.11l-1.51,0h-2.77a14,14,0,0,0-2.92.44,13.22,13.22,0,0,0-2.28.83,12,12,0,0,0-3.51,2.43,11.63,11.63,0,0,0-2.89,5,11.86,11.86,0,0,0-.37,2,13.37,13.37,0,0,0,.26,4.07,14.61,14.61,0,0,0,1.53,4,19.67,19.67,0,0,0,6.36,6.66,12.79,12.79,0,0,0,3.45,1.51,12.06,12.06,0,0,0,3.28.43,17,17,0,0,0,3.49-.42,28.49,28.49,0,0,0,3.42-1c1.39-.47,2.87-1.07,3.67-1.4l.61-.24c1-.42,2.07-.83,3.12-1.23a21.58,21.58,0,0,1,4.27-1.27c.25,0,.53-.05.85-.06h.17a5.89,5.89,0,0,1,.88.06,12.87,12.87,0,0,1,2.42.62c.41.15.81.31,1.2.47l.07,0,.17.07,1.56.61c1.91.74,3.56,1.32,5.05,1.78s3.2.9,4.79,1.23,3.2.54,5.12.74,4,.32,6.23.38l1.51,0c1.37,0,3.07-.07,5.2-.19,4.05-.28,8.08-.84,12-1.38h0l.26,0,.68-.09,2.32-.33h.14l.09,0h.08l.21,0c3-.41,6.57-.85,10.29-1,1.1-.06,2.23-.09,3.38-.09a55.34,55.34,0,0,1,7.15.44c2,.25,3.81.63,5.61,1h.06l.16,0,.16,0,.13,0,.08,0,.16,0,.19,0c1,.19,2.3.45,3.52.66a36.76,36.76,0,0,0,4.57.5c.28,0,.56,0,.84,0a19.42,19.42,0,0,0,3.48-.32,13,13,0,0,0,4-1.52,14.31,14.31,0,0,0,3.64-3.09,22.35,22.35,0,0,0,3-4.75,27.75,27.75,0,0,0,1.91-5.16,39.38,39.38,0,0,0,1.23-9.68c.06-3.47-.2-7.05-.46-10.14l-.13-1.49,0-.34v0l-.07-.74c-.51-5.8-1-11.79-.28-17.67.16-1.14.37-2.28.63-3.37v.05c.11.21.23.41.34.61l.1.16a57.4,57.4,0,0,1,2.76,5.47c.1.22.2.47.29.72.31.83.58,1.59.81,2.32a24,24,0,0,1,.76,3.47l0,.19v.16a.46.46,0,0,0,.09.27.51.51,0,0,0,.32.25l.15,0a.53.53,0,0,0,.48-.28c.37-.8.72-1.67,1.05-2.59a29.86,29.86,0,0,0,.85-2.9,50.35,50.35,0,0,0,1.06-6.22c.21-1.83.37-3.82.48-5.14v-.13l0-.22v-.07l0-.23.07-.82c.16-2.11.34-4.34.63-6.52.17-1.25.36-2.43.6-3.61.28-1.37.67-2.75,1.05-4a79.68,79.68,0,0,1,2.69-7.52c.66-1.53,1.33-3,2-4.33s1.53-2.92,2.48-4.54c.81-1.38,1.73-2.84,2.82-4.47s2-2.93,3.09-4.28,2.24-2.77,3.39-4,2.36-2.52,3.84-3.93a96,96,0,0,1,7.92-6.75c3.88-3,7.9-5.74,11.78-8.4l.11-.07.11-.08.11-.07.16-.11.09-.06,1.42-1c2-1.37,4.63-3.18,7.15-5,1.24-.9,2.27-1.67,3.26-2.45s2.23-1.87,3.5-3.05a74.7,74.7,0,0,0,6.07-6.44c.74-.87,1.59-1.93,2.7-3.33s2-2.64,2.7-3.67a53.2,53.2,0,0,0,4.26-7.46c1.18-2.46,2.18-5,3.09-7.37.21-.54.41-1.07.61-1.61l.06-.14.17-.45.19-.5.11-.3.19-.5.11-.28.22-.59.5-1.32c.32-.82.64-1.63,1-2.45l0,.11c0,.21,0,.4,0,.58l0,.43c-.08,2-.25,3.94-.49,5.79a56.74,56.74,0,0,1-1.32,6.7,47.68,47.68,0,0,1-5,12.11,49.33,49.33,0,0,1-3.51,5.18,58.32,58.32,0,0,1-5,5.57,64.68,64.68,0,0,1-6,5.19l-.4.33-.16.12c-.89.66-1.6,1.17-2.32,1.66-1,.66-2,1.32-2.85,1.86l-.09.06-.1.06-.05,0-.14.09-.3.19c-2,1.25-4.41,2.79-6.72,4.58a26.67,26.67,0,0,0-2.73,2.46,13.37,13.37,0,0,0-3,5.06,17.13,17.13,0,0,0-.75,3.21,29,29,0,0,0-.14,6.67,52.44,52.44,0,0,0,1.08,7,132.69,132.69,0,0,0,3.67,13l.19.6.06.2,0,.08,0,.13c.15.44.28.87.43,1.31.34,1,.74,2,1.27,3.27.94,2.27,2,4.46,3,6.3.47.92.94,1.84,1.43,2.76l.1.2.18.34,0,.06,0,.06,0,.07,0,.09c1.5,2.88,3.05,5.86,4.35,8.89.47,1.14.87,2.19,1.23,3.23s.66,2.08.95,3.25a.54.54,0,0,0,.52.4.56.56,0,0,0,.54-.41c.43-2.23,1-4.53,1.29-5.9l0-.11,0-.19v-.07l0-.13.05-.23c.31-1.35.74-3.2,1.09-4.88.37-1.85.68-3.73.9-5.6.14-1.22.22-2.4.25-3.51v.07a2.63,2.63,0,0,0,.15.35c.25.55.57,1.18,1,1.88a58,58,0,0,0,4.6,6.86c1.43,1.87,3,3.72,4.32,5.36l.11.15.13.14,0,0,.11.12c1.35,1.63,2.79,3.37,4.12,5.09,1.16,1.51,2.21,3,3.2,4.45a33,33,0,0,1,2.7,4.92c.27.66.53,1.37.76,2.1a17.33,17.33,0,0,1,.58,2.4,7.1,7.1,0,0,1,0,1.22c0,.6-.11,1.21-.18,1.73-.19,1.44-.43,2.89-.64,4.13l0,.12c-.08.46-.16.92-.23,1.38-.13.81-.26,1.65-.37,2.5a19.52,19.52,0,0,0-.19,2.22,4.84,4.84,0,0,0,.05.74.13.13,0,0,0,0,.06c1.57,0,3.83,0,7,.22,4.71.33,7.53-.26,12-2.38,4.27-2,4.8-2,7.4-4.1,2.16-1.72,2.4-1.8.41,1.12l.17-.09-.08.07-.12.11-.16.19-1.2,1.74a10.64,10.64,0,0,1-3.47,3.13c-.32.29-.65.56-1,.82l0,.06c-.66.47-1.22.84-1.75,1.17a21.66,21.66,0,0,1-2.22,1.13,26.84,26.84,0,0,1-3,1,34.31,34.31,0,0,1-3.78.71h-.07c-1.23.18-2.54.3-3.89.38s-2.65.12-4.39.13H361l-3.54,0h-.8l-3.38,0a70.09,70.09,0,0,0-8.41.45c-1.39.18-2.79.43-4.16.74-.71.16-1.45.28-2.39.4l0,0h-.21l-.25,0-.59.06-1.17.14H336l-.2,0-.1,0c-1,.12-2.35.28-3.6.47a19.87,19.87,0,0,0-6,1.81,8.83,8.83,0,0,0-2.13,1.56,7.75,7.75,0,0,0-.78,1,13.13,13.13,0,0,0-.9,1.56,10.71,10.71,0,0,0-.86,2.44,8.34,8.34,0,0,0-.14,2.5,7.58,7.58,0,0,0,.52,2.11,9,9,0,0,0,1.16,2.07,13.25,13.25,0,0,0,3.61,3.23,21,21,0,0,0,4.83,2.22,24.36,24.36,0,0,0,5.22,1.08c.6.05,1.17.08,1.69.08a16.16,16.16,0,0,0,2.71-.22,15.92,15.92,0,0,0,3.11-.94c.62-.24,1.37-.56,2.24-.95.43-.2.83-.38,1.24-.55l.11-.05c.64-.25,1.21-.46,1.79-.67a12.84,12.84,0,0,1,2.22-.5c.19,0,.39,0,.59-.06h.92a12.22,12.22,0,0,1,1.44.13,48.81,48.81,0,0,1,5.66,1.27l.05,0,.5.13c1.26.34,2.36.62,3.39.86s2,.4,3.1.53q.57.06,1.14.09l.31,0c.67.05,1.33.09,2,.12,1.09.06,2.34.1,3.94.15.93,0,1.89,0,2.85,0,1.44,0,3.07,0,4.83-.08,4.54-.17,9.24-.6,14.36-1.3,2.27-.32,4.74-.73,7.58-1.23l3.87-.76.81-.13a28.2,28.2,0,0,1,3.68-.2c.75,0,1.5,0,2.25,0,2.54.07,5.12.24,7.39.38l.19,0,.3,0,.88.05h.68c4.57.3,9.29.6,14,.6l2.42,0a60.73,60.73,0,0,0,8.34-.72,24.92,24.92,0,0,0,6.83-2.07,13,13,0,0,0,2.6-1.67,9.26,9.26,0,0,0,1.93-2.19,10.08,10.08,0,0,0,1.42-6,18.37,18.37,0,0,0-.86-4.49,34.54,34.54,0,0,0-2.22-5.34c-1.26-2.51-2.73-4.85-4.15-7.12l-.49-.77c-.78-1.26-1.55-2.51-2.31-3.87a39.46,39.46,0,0,1-2-4c-.33-.81-.64-1.66-.92-2.51a25.33,25.33,0,0,1-.66-2.47l.06.07.53.19c.19.06.39.1.58.15l.1,0,.15,0h.06c.5.1,1,.16,1.71.24s1.17.08,1.86.08h.47a50.59,50.59,0,0,0,5.95-.52l.25,0,2.06-.25a.46.46,0,0,0,.27-.09.55.55,0,0,0,.19-.76Z" transform="translate(-6.04 -32.85)"/><path class="cls-4" d="M747.83,473q-5.91-5.9-5.9-17.7V328.79L580.63,51.42A17.34,17.34,0,0,1,578,42.89q0-9.82,11.8-9.83h56.4q8.52,0,11.47,2.29c2,1.54,4.26,4.26,6.89,8.2l120,208.51L903.89,43.55c2.18-3.94,4.48-6.66,6.88-8.2s6.24-2.29,11.48-2.29h57q11.81,0,11.8,9.83a17.45,17.45,0,0,1-2.63,8.53l-162,278v125.9c0,7.86-1.87,13.77-5.57,17.7s-10.17,5.9-19.35,5.9H766.85Q753.73,478.94,747.83,473Z" transform="translate(-6.04 -32.85)"/><path class="cls-4" d="M1060.93,473q-5.58-5.9-5.57-17.7v-398q0-12.45,5.57-18.36t18.68-5.9h272.78c8.73,0,14.75,1.76,18,5.24s4.91,9.41,4.91,17.71v17.7q0,12.47-4.91,18t-18,5.57H1139.28V224.53H1294q13.11,0,18.36,5.24t5.25,17.7v16.4q0,12.47-5.25,18T1294,287.47H1139.28V415.34h212.45q13.11,0,18.36,5.57t5.24,18v17.7q0,11.79-5.24,17.05t-18.36,5.24H1079.61Q1066.5,478.94,1060.93,473Z" transform="translate(-6.04 -32.85)"/><path class="cls-4" d="M1550.4,473q-5.89-5.9-5.9-17.7v-358H1429.75q-13.11,0-18-5.25t-4.91-17.7V56.66q0-12.44,4.91-18t18-5.57h313.43q13.11,0,18.36,5.57t5.25,18V74.37q0,12.47-5.25,17.7t-18.36,5.25H1628.43v358q0,11.79-5.57,17.7t-19.35,5.9h-34.09Q1556.3,478.94,1550.4,473Z" transform="translate(-6.04 -32.85)"/><path class="cls-4" d="M1968.09,473q-5.91-5.9-5.91-17.7V328.79L1800.88,51.42a17.34,17.34,0,0,1-2.63-8.53q0-9.82,11.81-9.83h56.39q8.52,0,11.47,2.29c2,1.54,4.26,4.26,6.89,8.2l120,208.51L2124.15,43.55c2.17-3.94,4.47-6.66,6.88-8.2s6.23-2.29,11.48-2.29h57q11.8,0,11.81,9.83a17.45,17.45,0,0,1-2.63,8.53l-162,278v125.9q0,11.79-5.57,17.7t-19.35,5.9H1987.1Q1974,478.94,1968.09,473Z" transform="translate(-6.04 -32.85)"/></svg>