<?xml version="1.0" standalone="no"?>
<!DOCTYPE svg PUBLIC "-//W3C//DTD SVG 20010904//EN"
 "http://www.w3.org/TR/2001/REC-SVG-20010904/DTD/svg10.dtd">
<svg version="1.0" xmlns="http://www.w3.org/2000/svg"
 width="500.000000pt" height="500.000000pt" viewBox="0 0 500.000000 500.000000"
 preserveAspectRatio="xMidYMid meet">
<metadata>
Created by potrace 1.14, written by Peter Selinger 2001-2017
</metadata>
<g transform="translate(0.000000,500.000000) scale(0.100000,-0.100000)"
fill="#000000" stroke="none">
<path d="M2504 4701 c-27 -16 -75 -55 -106 -86 -122 -124 -161 -268 -112 -417
9 -26 20 -50 24 -53 5 -3 17 11 25 32 37 89 129 148 280 179 31 7 143 6 165
-1 18 -6 14 -10 -22 -29 -53 -28 -63 -56 -20 -56 36 0 112 -50 151 -99 41 -51
81 -133 81 -164 0 -23 -2 -24 -32 -17 -18 4 -46 13 -61 19 -16 6 -30 11 -32
11 -1 0 -17 -30 -35 -67 -18 -38 -53 -98 -78 -135 l-45 -68 1 -85 c1 -58 -2
-85 -9 -85 -7 0 -45 16 -84 35 -119 57 -200 164 -212 280 -7 64 -19 67 -47 10
-27 -55 -25 -147 8 -272 38 -149 36 -171 -33 -285 l-23 -38 29 -10 c92 -33
105 -42 97 -69 -22 -78 -6 -184 54 -361 27 -80 38 -129 37 -162 -2 -27 1 -48
5 -48 10 0 28 42 36 87 12 71 21 73 49 11 64 -140 49 -420 -33 -600 -39 -86
-129 -195 -248 -303 -151 -136 -249 -241 -310 -332 -85 -126 -133 -263 -86
-246 9 4 52 28 94 55 43 26 83 48 89 48 16 0 1 -36 -46 -115 -59 -97 -81 -143
-116 -238 -16 -45 -46 -107 -66 -137 -39 -59 -130 -160 -145 -160 -4 0 -27
-12 -51 -27 -51 -33 -99 -57 -110 -54 -5 1 -7 -4 -5 -11 9 -26 106 -32 203
-12 11 3 40 7 65 9 l45 5 -55 -20 c-30 -11 -66 -23 -80 -25 -14 -3 -34 -7 -45
-10 -11 -2 -42 -7 -70 -11 -27 -3 -53 -8 -56 -10 -4 -2 -38 -4 -75 -3 -38 0
-88 0 -112 0 -106 -1 -164 -85 -122 -178 20 -46 71 -88 115 -96 20 -4 62 5
122 26 l93 31 86 -29 c72 -24 103 -29 192 -29 96 -1 174 5 243 19 48 10 206 5
254 -8 169 -45 260 43 260 248 0 50 -3 128 -6 175 -3 47 -3 99 0 115 l6 30 23
-47 c12 -26 22 -55 22 -64 0 -8 5 -14 12 -12 19 7 33 69 43 201 8 110 49 218
122 326 66 97 142 166 303 276 194 132 273 224 345 400 26 65 31 56 14 -27
-29 -137 -127 -262 -282 -363 -101 -65 -122 -103 -114 -208 8 -120 65 -281
168 -469 5 -10 9 -25 9 -33 0 -9 4 -14 9 -11 5 3 17 49 27 101 l18 95 25 -39
c14 -22 58 -81 97 -133 62 -81 101 -158 90 -177 -2 -3 -7 -32 -10 -63 l-7 -58
38 -1 c84 -2 111 3 175 34 56 27 65 30 50 13 -65 -77 -108 -92 -275 -95 -71
-1 -138 -4 -150 -7 -12 -2 -51 -9 -86 -14 -103 -17 -128 -36 -137 -104 -3 -22
3 -37 23 -59 57 -59 137 -72 235 -37 30 10 64 17 74 15 130 -29 160 -32 266
-30 64 2 129 6 145 9 77 17 115 19 328 20 196 1 236 4 267 18 47 23 68 53 68
101 0 39 -38 132 -72 176 -18 24 -58 106 -58 120 0 4 19 6 43 6 23 -1 56 1 72
5 27 6 28 8 10 14 -91 35 -138 70 -291 211 -171 159 -286 277 -308 315 -18 32
-18 33 -1 26 30 -11 131 -19 158 -12 25 6 22 10 -62 94 -100 99 -290 356 -333
450 -15 34 -31 83 -35 108 -6 44 -5 46 14 35 12 -6 45 -13 75 -16 29 -3 64 -8
78 -11 25 -5 25 -5 -6 28 -162 173 -308 569 -313 851 l-1 37 -61 0 c-88 0
-191 26 -239 61 -39 28 -100 110 -100 133 0 6 12 -9 25 -33 31 -53 44 -65 111
-96 56 -26 126 -37 227 -37 77 0 72 7 82 -113 25 -309 157 -643 308 -783 65
-59 74 -56 69 25 l-4 67 52 -46 c86 -75 201 -88 307 -34 55 27 169 143 179
181 10 38 -2 46 -64 42 -67 -5 -105 11 -127 53 -13 25 -21 80 -12 80 2 0 18
-7 35 -16 18 -8 41 -14 52 -12 19 3 19 4 -6 33 -35 40 -88 147 -113 226 -34
109 -34 112 -21 104 14 -8 89 2 110 15 12 8 11 13 -8 33 -12 13 -42 75 -66
138 -24 63 -56 138 -72 168 -29 55 -126 161 -199 218 l-40 31 48 -9 c27 -5 53
-11 58 -14 30 -19 -20 88 -67 144 -72 84 -185 151 -381 227 -131 50 -207 91
-242 128 -28 30 -23 31 47 11 29 -9 56 -13 61 -10 13 7 3 80 -20 144 -26 74
-83 168 -191 313 -108 146 -156 198 -223 240 -27 18 -51 33 -53 34 -8 5 20 44
31 44 7 0 22 6 32 14 18 13 17 14 -11 29 -23 12 -73 17 -201 20 -145 4 -177 8
-217 26 -46 20 -48 22 -44 56 5 44 -9 45 -78 6z"/>
<path d="M175 3669 c-112 -10 -135 -16 -157 -36 -30 -27 -18 -69 51 -171 107
-159 268 -352 406 -485 110 -105 157 -149 230 -211 44 -38 92 -79 106 -91 39
-34 257 -197 314 -235 28 -19 52 -36 55 -39 3 -4 43 -31 88 -61 58 -37 88 -51
96 -44 95 70 135 83 190 60 74 -31 151 -146 162 -242 l6 -50 122 -65 c66 -36
174 -91 238 -123 l117 -59 37 28 c56 43 209 199 241 247 32 46 82 168 89 218
4 24 1 32 -18 39 -13 5 -113 53 -223 106 -221 107 -601 289 -970 465 -55 26
-170 81 -255 122 -150 73 -255 123 -485 233 -364 173 -400 192 -418 225 -11
17 -17 33 -15 36 3 2 22 6 43 7 29 3 59 -6 119 -36 45 -22 108 -52 141 -67 33
-15 146 -69 250 -120 105 -51 231 -112 280 -135 50 -24 153 -73 230 -110 77
-37 194 -93 260 -125 66 -32 183 -88 260 -125 77 -37 185 -89 240 -115 55 -26
190 -92 300 -145 110 -53 219 -105 241 -115 l42 -18 5 31 c5 37 -1 199 -8 206
-3 2 -21 -10 -40 -29 -24 -24 -44 -33 -73 -36 l-39 -2 19 36 c22 43 18 94 -13
181 -70 193 -81 237 -83 320 l-1 85 -118 47 c-265 107 -707 249 -879 283 -13
2 -54 12 -93 21 -38 10 -83 19 -100 21 -16 3 -50 9 -75 14 -47 10 -74 15 -150
25 -25 3 -52 8 -60 10 -8 2 -46 7 -85 10 -38 4 -83 9 -100 11 -62 8 -443 10
-520 3z"/>
<path d="M1432 2305 c-47 -26 -64 -59 -49 -94 13 -32 45 -69 71 -83 16 -9 18
-7 14 15 l-5 25 29 -29 c30 -30 139 -69 170 -61 14 3 17 13 14 52 -5 57 -25
99 -69 144 -57 58 -110 68 -175 31z"/>
<path d="M4408 2012 c-6 -16 -64 -50 -113 -67 -96 -33 -211 -15 -278 43 -25
22 -31 9 -19 -38 9 -37 8 -40 -12 -41 -48 -4 -158 2 -203 10 -26 5 -50 7 -52
5 -2 -2 0 -14 6 -27 11 -23 48 -43 288 -157 101 -48 183 -88 515 -248 63 -30
151 -72 195 -93 78 -37 79 -38 52 -48 -31 -12 -30 -11 -17 -45 11 -31 18 -33
-163 56 -75 37 -139 68 -141 68 -2 0 -97 45 -211 101 -285 138 -398 190 -402
186 -4 -5 131 -202 166 -242 56 -64 151 -155 181 -173 17 -11 28 -22 23 -25
-16 -10 -99 -30 -136 -32 -21 -1 -40 -5 -43 -7 -9 -10 83 -98 102 -99 11 0 28
-2 39 -5 11 -2 36 -6 55 -9 19 -2 52 -7 73 -11 154 -25 455 -37 521 -20 l29 7
-6 73 c-4 41 -7 78 -8 82 -5 31 8 47 71 86 43 26 73 52 76 65 14 52 -231 325
-497 556 -64 55 -84 66 -91 49z"/>
</g>
</svg>
